<?xml version="1.0" encoding="UTF-8" standalone="no"?>
<svg
   xmlns:dc="http://purl.org/dc/elements/1.1/"
   xmlns:cc="http://creativecommons.org/ns#"
   xmlns:rdf="http://www.w3.org/1999/02/22-rdf-syntax-ns#"
   xmlns:svg="http://www.w3.org/2000/svg"
   xmlns="http://www.w3.org/2000/svg"
   viewBox="0 0 2440 2050.6667"
   height="2050.6667"
   width="2440"
   xml:space="preserve"
   id="svg2"
   version="1.1"><metadata
     id="metadata8"><rdf:RDF><cc:Work
         rdf:about=""><dc:format>image/svg+xml</dc:format><dc:type
           rdf:resource="http://purl.org/dc/dcmitype/StillImage" /></cc:Work></rdf:RDF></metadata><defs
     id="defs6"><clipPath
       id="clipPath20"
       clipPathUnits="userSpaceOnUse"><path
         id="path18"
         d="M 0,1538 H 1830 V 0 H 0 Z" /></clipPath></defs><g
     transform="matrix(1.3333333,0,0,-1.3333333,0,2050.6667)"
     id="g10"><path
       id="path12"
       style="fill:#000000;fill-opacity:1;fill-rule:nonzero;stroke:none"
       d="M 0,0 H 1830 V 1538 H 0 Z" /><g
       id="g14"><g
         clip-path="url(#clipPath20)"
         id="g16"><g
           transform="translate(529.0833,1021.8031)"
           id="g22"><path
             id="path24"
             style="fill:#ffffff;fill-opacity:1;fill-rule:nonzero;stroke:none"
             d="M 0,0 C 0,0 14.75,-2.25 18.5,31.875 22.25,66 21.75,69.25 10.5,79 c -9.501,8.234 -116.363,93.68 -149.357,120.046 -2.673,2.136 -6.434,-0.69 -5.125,-3.852 C -136.617,177.41 -120.212,141.642 -94.5,106 -58.25,55.75 -16.37,4.25 0,0" /></g><g
           transform="translate(497.6667,1005.3031)"
           id="g26"><path
             id="path28"
             style="fill:#ffffff;fill-opacity:1;fill-rule:nonzero;stroke:none"
             d="m 0,0 18.829,5.955 c 3.674,1.162 4.538,5.961 1.507,8.34 -18.533,14.55 -68.017,56.752 -99.419,114.955 -39.25,72.75 -62,128.75 -62,128.75 l -17.75,15 c 0,0 43.246,-151.748 100.333,-213.417 C 2.597,-6.417 0,0 0,0" /></g><g
           transform="translate(1300.9166,1021.8031)"
           id="g30"><path
             id="path32"
             style="fill:#ffffff;fill-opacity:1;fill-rule:nonzero;stroke:none"
             d="M 0,0 C 0,0 -14.75,-2.25 -18.5,31.875 -22.25,66 -21.75,69.25 -10.5,79 c 9.501,8.234 116.363,93.68 149.357,120.046 2.673,2.136 6.434,-0.69 5.125,-3.852 C 136.617,177.41 120.212,141.642 94.5,106 58.25,55.75 16.37,4.25 0,0" /></g><g
           transform="translate(1332.3334,1005.3031)"
           id="g34"><path
             id="path36"
             style="fill:#ffffff;fill-opacity:1;fill-rule:nonzero;stroke:none"
             d="m 0,0 -18.829,5.955 c -3.674,1.162 -4.538,5.961 -1.507,8.34 18.533,14.55 68.017,56.752 99.419,114.955 39.25,72.75 62,128.75 62,128.75 l 17.75,15 C 158.833,273 115.587,121.252 58.5,59.583 -2.597,-6.417 0,0 0,0" /></g><g
           transform="translate(402.6667,1078.5531)"
           id="g38"><path
             id="path40"
             style="fill:#ffffff;fill-opacity:1;fill-rule:nonzero;stroke:none"
             d="M 0,0 C 0,0 18.667,-17.333 32.667,-40.667 46.667,-64 55.333,-82.5 55.333,-82.5 c 0,0 -46.833,25.667 -112,40.5 -65.166,14.833 -83.5,20.167 -83.5,20.167 z" /></g><g
           transform="translate(727.3333,855.0531)"
           id="g42"><path
             id="path44"
             style="fill:#ffffff;fill-opacity:1;fill-rule:nonzero;stroke:none"
             d="M 0,0 -225.5,134 -568.167,-0.333 Z" /></g><g
           transform="translate(750.1667,786.5531)"
           id="g46"><path
             id="path48"
             style="fill:#ffffff;fill-opacity:1;fill-rule:nonzero;stroke:none"
             d="M 0,0 C 0,0 10.667,19.333 -25.667,25 -62,30.667 -109,37.667 -123,34.667 -137,31.667 -326.333,-47 -326.333,-47 l -228.334,-327 z" /></g><g
           transform="translate(759.5,640.2198)"
           id="g50"><path
             id="path52"
             style="fill:#ffffff;fill-opacity:1;fill-rule:nonzero;stroke:none"
             d="m 0,0 -45.667,-11.333 -144.333,-97 -61,-300.334 z" /></g><g
           transform="translate(1427.3334,1078.5531)"
           id="g54"><path
             id="path56"
             style="fill:#ffffff;fill-opacity:1;fill-rule:nonzero;stroke:none"
             d="M 0,0 C 0,0 -18.667,-17.333 -32.667,-40.667 -46.667,-64 -55.333,-82.5 -55.333,-82.5 c 0,0 46.833,25.667 112,40.5 65.166,14.833 83.5,20.167 83.5,20.167 z" /></g><g
           transform="translate(1102.6666,855.0531)"
           id="g58"><path
             id="path60"
             style="fill:#ffffff;fill-opacity:1;fill-rule:nonzero;stroke:none"
             d="M 0,0 225.5,134 568.167,-0.333 Z" /></g><g
           transform="translate(1079.8334,786.5531)"
           id="g62"><path
             id="path64"
             style="fill:#ffffff;fill-opacity:1;fill-rule:nonzero;stroke:none"
             d="M 0,0 C 0,0 -10.667,19.333 25.667,25 62,30.667 109,37.667 123,34.667 137,31.667 326.333,-47 326.333,-47 l 228.334,-327 z" /></g><g
           transform="translate(1070.5,640.2198)"
           id="g66"><path
             id="path68"
             style="fill:#ffffff;fill-opacity:1;fill-rule:nonzero;stroke:none"
             d="m 0,0 45.667,-11.333 144.333,-97 61,-300.334 z" /></g><g
           transform="translate(822.5833,676.5531)"
           id="g70"><path
             id="path72"
             style="fill:#ffffff;fill-opacity:1;fill-rule:nonzero;stroke:none"
             d="m 0,0 8.5,34.25 c 0,0 -1.25,3.5 -8.5,8.75 -7.25,5.25 -23.5,7.5 -23.5,7.5 -13.5,-33.25 5.75,-129 5.75,-129 0,0 3.75,11.5 14,36.5 10.25,25 26,57 26,57 L 12.5,29.25 Z" /></g><g
           transform="translate(847.8333,690.5531)"
           id="g74"><path
             id="path76"
             style="fill:#ffffff;fill-opacity:1;fill-rule:nonzero;stroke:none"
             d="m 0,0 c -8,-39 4.625,-76.25 4.625,-76.25 0,0 2.125,3.5 9.625,21.25 7.5,17.75 17.25,31.5 17.25,31.5 0,0 -4.5,7.5 -13,17.75 C 10,4.5 0,0 0,0" /></g><g
           transform="translate(898.5833,671.5531)"
           id="g78"><path
             id="path80"
             style="fill:#ffffff;fill-opacity:1;fill-rule:nonzero;stroke:none"
             d="m 0,0 c -10.75,4.25 -17.75,-6.5 -17.75,-6.5 -1.75,-33 11.25,-49 11.25,-49 0,0 0.25,5.5 10.5,25.5 10.25,20 8,23.5 8,23.5 0,0 -1.25,2.25 -12,6.5" /></g><g
           transform="translate(1030.9166,727.0531)"
           id="g82"><path
             id="path84"
             style="fill:#ffffff;fill-opacity:1;fill-rule:nonzero;stroke:none"
             d="m 0,0 c 0,0 -16.25,-2.25 -23.5,-7.5 -7.25,-5.25 -8.5,-8.75 -8.5,-8.75 l 8.5,-34.25 -12.5,29.25 -9.75,-14.25 c 0,0 15.75,-32 26,-57 10.25,-25 14,-36.5 14,-36.5 0,0 19.25,95.75 5.75,129" /></g><g
           transform="translate(963.6667,684.8031)"
           id="g86"><path
             id="path88"
             style="fill:#ffffff;fill-opacity:1;fill-rule:nonzero;stroke:none"
             d="m 0,0 c -8.5,-10.25 -13,-17.75 -13,-17.75 0,0 9.75,-13.75 17.25,-31.5 7.5,-17.75 9.625,-21.25 9.625,-21.25 0,0 12.625,37.25 4.625,76.25 0,0 -10,4.5 -18.5,-5.75" /></g><g
           transform="translate(931.4167,671.5531)"
           id="g90"><path
             id="path92"
             style="fill:#ffffff;fill-opacity:1;fill-rule:nonzero;stroke:none"
             d="m 0,0 c -10.75,-4.25 -12,-6.5 -12,-6.5 0,0 -2.25,-3.5 8,-23.5 10.25,-20 10.5,-25.5 10.5,-25.5 0,0 13,16 11.25,49 0,0 -7,10.75 -17.75,6.5" /></g><g
           transform="translate(915,387)"
           id="g94"><path
             id="path96"
             style="fill:#ffffff;fill-opacity:1;fill-rule:nonzero;stroke:none"
             d="m 0,0 h -34.167 c 0,0 -11,9.527 -18.5,17.277 -7.5,7.75 -7.25,8.388 -7.25,8.388 0,0 -10.75,-18.806 3.25,-34.556 14,-15.75 33,-21.278 40.25,-14.528 7.25,6.75 9.084,8.986 11.084,15.236 C -4.036,-4.128 0,-4.947 0,-4.947 Z" /></g><g
           transform="translate(831,372.5531)"
           id="g98"><path
             id="path100"
             style="fill:#ffffff;fill-opacity:1;fill-rule:nonzero;stroke:none"
             d="m 0,0 7.5,19.667 -10.833,149 -21.334,37.666 c 0,0 -11.833,10.5 -13,-4.333 -1.166,-14.833 2.25,-105 8.25,-170.5 6,-65.5 20,-191.25 20,-191.25 0,0 3.75,-2.75 8,-3.25 l 4.25,-0.5 c 0,0 -12.333,165.5 -14.666,215.833 -2.334,50.334 -5.667,105 -5.667,105 z" /></g><g
           transform="translate(833.6667,333.8864)"
           id="g102"><path
             id="path104"
             style="fill:#ffffff;fill-opacity:1;fill-rule:nonzero;stroke:none"
             d="m 0,0 c 0,0 17.667,-53.667 26.167,-70 8.5,-16.333 11,-19.333 8.166,-26.667 C 31.5,-104 28.5,-109.333 28.5,-109.333 l -9.667,33 5,-41.667 c 0,0 -8.166,-14.667 -13,-15.167 -4.833,-0.5 -5,0.5 -7.166,14.334 C 1.5,-105 -2.167,-7.5 0,0" /></g><g
           transform="translate(918.3333,480.9281)"
           id="g106"><path
             id="path108"
             style="fill:#ffffff;fill-opacity:1;fill-rule:nonzero;stroke:none"
             d="M 0,0 -3.333,-59.125 -6.667,0 -74.708,65.181 c 0,0 8.208,-82.694 10.208,-108.194 2,-25.5 -2,-16.889 6.25,-26.889 8.25,-10 21.75,-21.026 21.75,-21.026 h 32.167 2 32.166 c 0,0 13.5,11.026 21.75,21.026 8.25,10 4.25,1.389 6.25,26.889 2,25.5 10.209,108.194 10.209,108.194 z" /></g><g
           transform="translate(915,387)"
           id="g110"><path
             id="path112"
             style="fill:#ffffff;fill-opacity:1;fill-rule:nonzero;stroke:none"
             d="m 0,0 h 34.167 c 0,0 11,9.527 18.5,17.277 7.5,7.75 7.25,8.388 7.25,8.388 0,0 10.75,-18.806 -3.25,-34.556 -14,-15.75 -33,-21.278 -40.25,-14.528 -7.25,6.75 -9.084,8.986 -11.084,15.236 C 4.036,-4.128 0,-4.947 0,-4.947 Z" /></g><g
           transform="translate(999,372.5531)"
           id="g114"><path
             id="path116"
             style="fill:#ffffff;fill-opacity:1;fill-rule:nonzero;stroke:none"
             d="m 0,0 -7.5,19.667 10.833,149 21.334,37.666 c 0,0 11.833,10.5 13,-4.333 1.166,-14.833 -2.25,-105 -8.25,-170.5 -6,-65.5 -20,-191.25 -20,-191.25 0,0 -3.75,-2.75 -8,-3.25 l -4.25,-0.5 c 0,0 12.333,165.5 14.666,215.833 2.334,50.334 5.667,105 5.667,105 z" /></g><g
           transform="translate(996.3333,333.8864)"
           id="g118"><path
             id="path120"
             style="fill:#ffffff;fill-opacity:1;fill-rule:nonzero;stroke:none"
             d="m 0,0 c 0,0 -17.667,-53.667 -26.167,-70 -8.5,-16.333 -11,-19.333 -8.166,-26.667 2.833,-7.333 5.833,-12.666 5.833,-12.666 l 9.667,33 -5,-41.667 c 0,0 8.166,-14.667 13,-15.167 4.833,-0.5 5,0.5 7.166,14.334 C -1.5,-105 2.167,-7.5 0,0" /></g><g
           transform="translate(959.3333,249.2198)"
           id="g122"><path
             id="path124"
             style="fill:#ffffff;fill-opacity:1;fill-rule:nonzero;stroke:none"
             d="m 0,0 -5.667,8.833 c 0,0 -8.833,-4.666 -10.166,-8.833 -1.334,-4.167 -1.334,-12.5 -1.334,-12.5 l -1.166,13.333 -7.834,9.834 -7.833,-7.5 -1.167,-5.834 -0.916,5.5 -8.25,9.834 -8.25,-9.834 -0.917,-5.5 -1.167,5.834 -7.833,7.5 L -70.333,0.833 -71.5,-12.5 c 0,0 0,8.333 -1.333,12.5 C -74.167,4.167 -83,8.833 -83,8.833 L -88.667,0 c -1.666,-9.833 3.92,-30.917 3.92,-30.917 0,0 0.002,-2.25 7.502,-3.25 7.5,-1 6.88,3.25 6.88,3.25 0,0 1.386,-3.625 7.761,-4.375 5.334,-0.627 7.526,1.278 8.102,1.919 0.006,-0.245 0.333,-0.774 1.835,-1.919 2.625,-2 8.334,-2.375 8.334,-2.375 0,0 5.708,0.375 8.333,2.375 1.503,1.145 1.83,1.674 1.836,1.919 0.575,-0.641 2.767,-2.546 8.102,-1.919 6.375,0.75 7.76,4.375 7.76,4.375 0,0 -0.62,-4.25 6.88,-3.25 7.5,1 7.503,3.25 7.503,3.25 0,0 5.586,21.084 3.919,30.917" /></g><g
           transform="translate(965.4583,170.9281)"
           id="g126"><path
             id="path128"
             style="fill:#ffffff;fill-opacity:1;fill-rule:nonzero;stroke:none"
             d="m 0,0 c -19.375,-5.5 -50.458,-4.375 -50.458,-4.375 0,0 -31.084,-1.125 -50.459,4.375 -19.375,5.5 -26.541,11.75 -26.541,11.75 0,0 -0.021,3.25 2.979,1.5 3,-1.75 11.198,-9 33.573,-11.25 22.375,-2.25 40.448,-2.125 40.448,-2.125 0,0 18.073,-0.125 40.448,2.125 22.375,2.25 30.572,9.5 33.572,11.25 3,1.75 2.98,-1.5 2.98,-1.5 C 26.542,11.75 19.375,5.5 0,0 m 37.953,33.377 c -5,-3 -9.13,-0.748 -9.13,-0.748 0,0 1.739,-1.496 -2.802,-5.871 -4.542,-4.375 -10.604,1.633 -14.854,5.883 -4.25,4.25 -3.667,3.265 -14.917,-1.61 -11.25,-4.875 -46.708,-8.094 -46.708,-8.094 0,0 -35.459,3.219 -46.709,8.094 -11.25,4.875 -10.666,5.86 -14.916,1.61 -4.25,-4.25 -10.313,-10.258 -14.855,-5.883 -4.541,4.375 -2.802,5.871 -2.802,5.871 0,0 -4.13,-2.252 -9.13,0.748 -5,3 -4.127,2.499 -3.002,-7.751 1.125,-10.25 5.998,-50.126 5.998,-50.126 0,0 1.75,-6 12.375,-8.25 10.625,-2.25 41.458,-11.25 56.458,-12.125 15,-0.875 16.583,-0.75 16.583,-0.75 0,0 1.583,-0.125 16.583,0.75 15,0.875 45.833,9.875 56.458,12.125 10.625,2.25 12.374,8.25 12.374,8.25 0,0 4.874,39.876 5.999,50.126 1.125,10.25 1.997,10.751 -3.003,7.751" /></g><g
           transform="translate(738.0833,1087.0531)"
           id="g130"><path
             id="path132"
             style="fill:#ffffff;fill-opacity:1;fill-rule:nonzero;stroke:none"
             d="m 0,0 25.5,51.75 c 0,0 56.5,-38.75 64,-65.5 7.5,-26.75 10.917,-43.5 10.917,-43.5 z" /></g><g
           transform="translate(846.5833,966.8031)"
           id="g134"><path
             id="path136"
             style="fill:#ffffff;fill-opacity:1;fill-rule:nonzero;stroke:none"
             d="m 0,0 -7.5,58 -104.25,55.75 -14,-30.75 2.25,10.75 9.75,22 -99.509,55.763 c -2.272,1.274 -5.139,0.636 -6.658,-1.481 l -22.274,-31.043 c -3.593,-5.007 -1.914,-12.035 3.553,-14.878 z" /></g><g
           transform="translate(686.8333,1043.0531)"
           id="g138"><path
             id="path140"
             style="fill:#ffffff;fill-opacity:1;fill-rule:nonzero;stroke:none"
             d="m 0,0 85.75,-43.5 -4.25,-4.5 -11,3.25 C 70.5,-44.75 31,-63 15.5,-43 0,-23 3.474,-12.056 3.474,-12.056 L -6.25,-4 Z" /></g><g
           transform="translate(802.5,961.7198)"
           id="g142"><path
             id="path144"
             style="fill:#ffffff;fill-opacity:1;fill-rule:nonzero;stroke:none"
             d="m 0,0 -10.667,7.833 c 0,0 -9.666,-4 -20.5,-3.916 C -42,4 -46,3.917 -46,3.917 l 17.167,-20.084 c 0,0 21.166,7.667 28.833,16.167" /></g><g
           transform="translate(768.1667,942.8864)"
           id="g146"><path
             id="path148"
             style="fill:#ffffff;fill-opacity:1;fill-rule:nonzero;stroke:none"
             d="m 0,0 c 0,0 -7.833,8.833 -15.833,14.667 -8,5.833 -10.667,9.25 -10.667,9.25 0,0 -44.333,-3.417 -63.167,13.916 -18.833,17.334 -21,32.667 -21,32.667 0,0 1.667,6.5 -11.666,23 -13.334,16.5 -15.334,19.333 -15.334,19.333 0,0 -10.666,-69 25.334,-99.166 C -76.333,-16.5 -36.5,-12.5 -21.667,-8 -6.833,-3.5 0,0 0,0" /></g><g
           transform="translate(765.8333,1222.5531)"
           id="g150"><path
             id="path152"
             style="fill:#ffffff;fill-opacity:1;fill-rule:nonzero;stroke:none"
             d="m 0,0 h 56 c 0,0 -34.75,57 -53.5,68 -12.246,7.184 -26.837,11.596 -35.487,13.792 -3.015,0.765 -5.544,-2.352 -4.186,-5.151 z" /></g><g
           transform="translate(761.5833,1222.5531)"
           id="g154"><path
             id="path156"
             style="fill:#ffffff;fill-opacity:1;fill-rule:nonzero;stroke:none"
             d="m 0,0 c 0,0 -32.5,66.75 -67,90.75 -28.464,19.801 -81.942,52.194 -99.785,62.924 -1.422,0.855 -3.006,-0.824 -2.08,-2.201 L -67,0 Z" /></g><g
           transform="translate(632.809,1154.6672)"
           id="g158"><path
             id="path160"
             style="fill:#ffffff;fill-opacity:1;fill-rule:nonzero;stroke:none"
             d="m 0,0 47.194,60.707 c 2.748,3.535 1.24,8.722 -2.976,10.23 -35.074,12.537 -168.072,60.402 -212.194,80.949 -49.873,23.225 -75.36,36.17 -76.462,36.731 -0.025,0.012 -0.046,0.022 -0.072,0.033 -1.117,0.456 -29.367,12.259 -24.466,38.236 2.747,14.557 4.437,23.456 5.403,28.521 0.386,2.022 -1.954,3.419 -3.563,2.134 -9.477,-7.573 -30.783,-25.989 -38.84,-44.405 -10.5,-24 -12.25,-51 7.5,-75.5 19.75,-24.5 108.75,-87.5 173.5,-127.5 56.179,-34.705 82.435,-51.72 88.402,-55.616 0.762,-0.498 1.773,-0.312 2.316,0.418 l 22.988,30.938 c 1.493,2.009 0.916,4.869 -1.239,6.143 l -253.217,149.617 c 0,0 -8.75,4.875 -10,10.5 -1.356,6.102 1.496,7.498 1.5,7.5 0,0 -0.25,-8 8.5,-13.125 C -257.75,141.839 -46.843,19.709 -9.576,-1.871 -6.364,-3.731 -2.278,-2.93 0,0" /></g><g
           transform="translate(1091.9166,1087.0531)"
           id="g162"><path
             id="path164"
             style="fill:#ffffff;fill-opacity:1;fill-rule:nonzero;stroke:none"
             d="m 0,0 -25.5,51.75 c 0,0 -56.5,-38.75 -64,-65.5 -7.5,-26.75 -10.917,-43.5 -10.917,-43.5 z" /></g><g
           transform="translate(983.4167,966.8031)"
           id="g166"><path
             id="path168"
             style="fill:#ffffff;fill-opacity:1;fill-rule:nonzero;stroke:none"
             d="m 0,0 7.5,58 104.25,55.75 14,-30.75 -2.25,10.75 -9.75,22 99.509,55.763 c 2.272,1.274 5.139,0.636 6.658,-1.481 l 22.274,-31.043 c 3.593,-5.007 1.914,-12.035 -3.553,-14.878 z" /></g><g
           transform="translate(1143.1666,1043.0531)"
           id="g170"><path
             id="path172"
             style="fill:#ffffff;fill-opacity:1;fill-rule:nonzero;stroke:none"
             d="m 0,0 -85.75,-43.5 4.25,-4.5 11,3.25 c 0,0 39.5,-18.25 55,1.75 15.5,20 12.026,30.944 12.026,30.944 L 6.25,-4 Z" /></g><g
           transform="translate(1027.5,961.7198)"
           id="g174"><path
             id="path176"
             style="fill:#ffffff;fill-opacity:1;fill-rule:nonzero;stroke:none"
             d="m 0,0 10.667,7.833 c 0,0 9.666,-4 20.5,-3.916 C 42,4 46,3.917 46,3.917 L 28.833,-16.167 C 28.833,-16.167 7.667,-8.5 0,0" /></g><g
           transform="translate(1061.8334,942.8864)"
           id="g178"><path
             id="path180"
             style="fill:#ffffff;fill-opacity:1;fill-rule:nonzero;stroke:none"
             d="m 0,0 c 0,0 7.833,8.833 15.833,14.667 8,5.833 10.667,9.25 10.667,9.25 0,0 44.333,-3.417 63.167,13.916 18.833,17.334 21,32.667 21,32.667 0,0 -1.667,6.5 11.666,23 13.334,16.5 15.334,19.333 15.334,19.333 0,0 10.666,-69 -25.334,-99.166 C 76.333,-16.5 36.5,-12.5 21.667,-8 6.833,-3.5 0,0 0,0" /></g><g
           transform="translate(1321.4928,1005.0538)"
           id="g182"><path
             id="path184"
             style="fill:#ffffff;fill-opacity:1;fill-rule:nonzero;stroke:none"
             d="m 0,0 -56.16,18.999 -38.435,52.926 c -1.861,2.562 -5.582,2.825 -7.785,0.551 l -16.446,-16.977 c 0,0 13.833,-85.833 -32.667,-115 -46.5,-29.166 -95.5,-12.833 -95.5,-12.833 l -16.167,6.5 -10.166,-12.667 -8.5,-29.166 -0.334,-7 c 0,0 -3.166,7.666 -3.166,8.166 0,0.5 3.166,25.305 9,33.236 5.833,7.931 7.666,9.764 7.666,9.764 l -29.666,17.917 c 0,0 -15.833,-19.375 -6.667,-55.708 9.167,-36.334 15,-51.355 15,-51.355 l 9.833,6.323 -2.333,-15.672 -51.833,-35.335 c 0,0 -3.5,-2.335 -2.667,-5.502 0.834,-3.166 -0.166,-3.667 6.5,0 6.667,3.666 46.333,28.166 46.333,28.166 l -1,-4.834 c 0,0 -60.833,-48.833 -84.833,-52.5 -24,-3.666 -36.333,-3 -36.333,-3 0,0 -12.667,-0.666 -36.667,3 -24,3.667 -84.833,52.5 -84.833,52.5 l -1,4.834 c 0,0 39.667,-24.5 46.333,-28.166 6.667,-3.667 5.667,-3.166 6.5,0 0.834,3.167 -2.666,5.502 -2.666,5.502 l -51.834,35.335 -2.333,15.672 9.833,-6.323 c 0,0 5.834,15.021 15,51.355 9.167,36.333 -6.666,55.708 -6.666,55.708 l -29.667,-17.917 c 0,0 1.833,-1.833 7.667,-9.764 5.833,-7.931 9,-32.736 9,-33.236 0,-0.5 -3.167,-8.166 -3.167,-8.166 l -0.333,7 -8.5,29.166 -10.167,12.667 -16.167,-6.5 c 0,0 -49,-16.333 -95.5,12.833 -46.5,29.167 -32.666,115 -32.666,115 l -16.447,16.977 c -2.203,2.274 -5.924,2.011 -7.784,-0.551 L -756.826,18.999 -812.986,0 c -4.253,-1.439 -4.854,-7.207 -0.989,-9.492 l 264.149,-156.175 12.667,-99.834 130.833,1 130.5,-1 12.666,99.834 L 0.99,-9.492 C 4.854,-7.207 4.253,-1.439 0,0" /></g><g
           transform="translate(1064.1666,1222.5531)"
           id="g186"><path
             id="path188"
             style="fill:#ffffff;fill-opacity:1;fill-rule:nonzero;stroke:none"
             d="m 0,0 h -56 c 0,0 34.75,57 53.5,68 12.246,7.184 26.837,11.596 35.487,13.792 3.015,0.765 5.544,-2.352 4.186,-5.151 z" /></g><g
           transform="translate(1068.4166,1222.5531)"
           id="g190"><path
             id="path192"
             style="fill:#ffffff;fill-opacity:1;fill-rule:nonzero;stroke:none"
             d="m 0,0 c 0,0 32.5,66.75 67,90.75 28.464,19.801 81.943,52.194 99.785,62.924 1.422,0.855 3.006,-0.824 2.08,-2.201 L 67,0 Z" /></g><g
           transform="translate(1197.1909,1154.6672)"
           id="g194"><path
             id="path196"
             style="fill:#ffffff;fill-opacity:1;fill-rule:nonzero;stroke:none"
             d="m 0,0 -47.193,60.707 c -2.749,3.535 -1.241,8.722 2.975,10.23 35.074,12.537 168.072,60.402 212.194,80.949 49.873,23.225 75.36,36.17 76.462,36.731 0.025,0.012 0.046,0.022 0.072,0.033 1.118,0.456 29.367,12.259 24.466,38.236 -2.747,14.557 -4.437,23.456 -5.403,28.521 -0.386,2.022 1.954,3.419 3.563,2.134 9.477,-7.573 30.783,-25.989 38.84,-44.405 10.5,-24 12.25,-51 -7.5,-75.5 -19.75,-24.5 -108.75,-87.5 -173.5,-127.5 -56.179,-34.705 -82.435,-51.72 -88.402,-55.616 -0.762,-0.498 -1.773,-0.312 -2.316,0.418 L 11.27,-14.124 c -1.493,2.009 -0.916,4.869 1.239,6.143 l 253.217,149.617 c 0,0 8.75,4.875 10,10.5 1.356,6.102 -1.496,7.498 -1.5,7.5 0,0 0.25,-8 -8.5,-13.125 C 257.75,141.839 46.843,19.709 9.576,-1.871 6.364,-3.731 2.278,-2.93 0,0" /></g><g
           transform="translate(950.0625,723.3031)"
           id="g198"><path
             id="path200"
             style="fill:#ffffff;fill-opacity:1;fill-rule:nonzero;stroke:none"
             d="m 0,0 c 32.5,0.75 83.063,6.25 83.063,6.25 l 6.708,8.25 -124.336,-1.992 -125.331,1.992 6.709,-8.25 c 0,0 50.562,-5.5 83.062,-6.25 24.603,-0.568 33.071,-0.869 35.516,-0.972" /></g><g
           transform="translate(1191.2834,1150.8527)"
           id="g202"><path
             id="path204"
             style="fill:#ffffff;fill-opacity:1;fill-rule:nonzero;stroke:none"
             d="m 0,0 -47.304,61.985 c -1.781,2.333 -5.178,2.638 -7.346,0.66 l -25.967,-23.695 22.5,29.75 -127.75,0.125 -20.5,-33.125 -6.75,-4.625 64.428,125.122 c 1.083,2.103 -0.529,4.587 -2.891,4.455 l -123.363,-6.9 -2.137,-0.03 -123.907,6.93 c -2.362,0.132 -3.973,-2.352 -2.891,-4.455 l 64.428,-125.122 -6.75,4.625 -20.5,33.125 -127.75,-0.125 22.5,-29.75 -25.967,23.695 c -2.168,1.978 -5.565,1.673 -7.346,-0.66 L -552.567,0 c -1.992,-2.61 -1.235,-6.376 1.611,-8.014 l 95.006,-54.661 24.667,53.542 -7.084,4.917 -7.083,10.166 16.667,-12.25 113.833,19.75 3.167,5.75 0.416,-5 34.365,3.773 0.907,0.058 34.895,-3.831 0.417,5 3.166,-5.75 113.834,-19.75 16.666,12.25 -7.083,-10.166 -7.083,-4.917 24.666,-53.542 95.006,54.661 C 1.235,-6.376 1.992,-2.61 0,0" /></g><g
           transform="translate(949.2499,1160.6365)"
           id="g206"><path
             id="path208"
             style="fill:#ffffff;fill-opacity:1;fill-rule:nonzero;stroke:none"
             d="M 0,0 -34.083,4.333 -34.25,4.304 V 4.333 L -68.417,0 -34.25,-232.5 v 0.049 -0.185 0.137 z" /></g><g
           transform="translate(1011.207,964.8058)"
           id="g210"><path
             id="path212"
             style="fill:#ffffff;fill-opacity:1;fill-rule:nonzero;stroke:none"
             d="M 0,0 C 1.193,1.988 -0.525,4.452 -2.808,4.048 L -28.54,-0.507 c 0,0 0,-1.378 -0.5,-14.253 -0.5,-12.875 4.166,-35.008 4.166,-35.008 0,0 -5,9.151 -8.5,36.984 -3.5,27.833 11.334,93.469 17.834,121.136 6.5,27.666 67.416,68.354 67.416,68.354 l -108.75,18.458 -39.104,-279.97 h -0.458 l -39.104,279.97 -108.75,-18.458 c 0,0 60.916,-40.688 67.416,-68.354 6.5,-27.667 21.334,-93.303 17.834,-121.136 -3.5,-27.833 -8.5,-36.984 -8.5,-36.984 0,0 4.666,22.133 4.166,35.008 -0.5,12.875 -0.5,14.253 -0.5,14.253 l -25.732,4.555 c -2.283,0.404 -4.001,-2.06 -2.808,-4.048 5.078,-8.464 11.991,-27.591 0.915,-60.379 -15.75,-46.625 -19,-52.588 -19,-52.588 l 62.75,-36.839 h 51.542 -0.164 -0.003 51.709 l 62.75,36.839 c 0,0 -3.25,6.075 -19,52.7 C -11.991,-27.479 -5.078,-8.464 0,0" /></g></g></g></g></svg>